<svg width="151" height="48" viewBox="0 0 151 48" fill="none" xmlns="http://www.w3.org/2000/svg">
    <mask id="mask0_208_29" style="mask-type:luminance" maskUnits="userSpaceOnUse" x="0" y="0" width="151" height="48">
        <path d="M150.071 0H0V48H150.071V0Z" fill="white" />
    </mask>
    <g mask="url(#mask0_208_29)">
        <path
            d="M35.2909 27.8914C34.0071 27.8914 32.7182 27.8914 31.4344 27.8914C30.1505 27.8914 28.8667 27.8516 27.5779 27.8019C27.4385 27.8019 27.3888 27.7422 27.4385 27.6277C27.4883 27.5133 27.4833 27.4834 27.5082 27.4088C27.5331 27.3341 27.553 27.2694 27.5779 27.1948L27.8665 26.3588C27.9577 26.0998 28.0048 25.8273 28.0058 25.5527C28.0058 23.7463 27.9212 21.8852 27.7421 19.9694C27.5629 18.0536 27.3639 16.2025 27.1499 14.416V14.4509C27.0106 13.3362 26.8812 12.3011 26.7767 11.3457C26.6722 10.3903 26.5677 9.35523 26.4732 8.24057C25.2822 10.4799 24.151 12.7888 23.0794 15.1674C22.0079 17.546 20.9264 19.8898 19.835 22.1987C19.407 23.1293 18.9691 24.0548 18.5312 24.9854C18.0933 25.9159 17.6455 26.8415 17.1926 27.767C17.1844 27.7893 17.1694 27.8084 17.1498 27.8218C17.1302 27.8352 17.1069 27.8421 17.0832 27.8417C17.0271 27.8367 16.9753 27.8099 16.9389 27.767C15.4442 25.7238 14.1478 23.5427 13.0674 21.2533C11.9826 18.9576 10.9542 16.715 9.98219 14.5255L8.58886 11.4204C8.16091 10.4649 7.65832 9.42987 7.09601 8.38488C7.02137 9.2159 6.93678 10.0221 6.84223 10.7934C6.74769 11.5647 6.65313 12.3559 6.55859 13.167C6.29651 15.1575 6.07092 17.1977 5.88183 19.2877C5.69274 21.3777 5.59653 23.4428 5.59321 25.483C5.56081 25.7132 5.58263 25.9478 5.65693 26.1681C5.73122 26.3884 5.85595 26.5883 6.02116 26.7519C6.36727 26.9804 6.73991 27.1659 7.13084 27.3043L7.59363 27.4635C7.75784 27.5232 7.92703 27.5879 8.09125 27.6576C8.12338 27.6745 8.14849 27.7023 8.16215 27.736C8.1758 27.7697 8.17713 27.8071 8.16588 27.8417C8.157 27.8727 8.13795 27.8999 8.11178 27.9189C8.08562 27.9378 8.05386 27.9474 8.02158 27.9462C7.11592 27.9462 6.22518 27.9113 5.3444 27.8417C4.46362 27.772 3.54802 27.7322 2.66724 27.7322C2.33384 27.7322 2.00541 27.7322 1.67201 27.7322C1.33876 27.7419 1.0064 27.7718 0.676775 27.8218C0.602133 27.8218 0.552367 27.8218 0.532462 27.7123C0.512557 27.6028 0.532462 27.558 0.602128 27.5332C0.671639 27.5123 0.743572 27.5006 0.816107 27.4983C0.90041 27.5008 0.984521 27.489 1.06491 27.4635C1.39347 27.4271 1.71713 27.3554 2.03028 27.2495C2.35852 27.0953 2.63255 26.8455 2.81652 26.533C2.9645 26.1237 3.05981 25.6973 3.10016 25.264C3.21959 24.5176 3.35394 23.5722 3.49327 22.4276C3.63261 21.2831 3.79185 19.9893 3.95606 18.5363C4.12027 17.0832 4.28946 15.6003 4.45368 14.0577C4.61789 12.5151 4.77215 11.0272 4.91645 9.53934C5.06076 8.05147 5.20507 6.69298 5.3444 5.45392C5.41407 4.88166 5.48374 4.30941 5.54346 3.73715C5.60317 3.16489 5.65293 2.64736 5.70269 2.18458C5.75245 1.7218 5.80719 1.18935 5.88183 0.597185L6.13064 0.527527C6.70124 1.57252 7.21876 2.52462 7.6832 3.38383L9.2905 6.36953C9.89759 7.50077 10.5163 8.66188 11.1466 9.85284C11.7736 11.0521 12.3956 12.2564 13.0027 13.4556C13.6098 14.6549 14.1622 15.7695 14.6648 16.7946C15.2569 18.0586 15.7993 19.2827 16.287 20.4372C16.7746 21.5916 17.1727 22.4824 17.4812 23.0795C18.1447 21.6961 18.7883 20.2978 19.412 18.8846C20.0357 17.4714 20.6544 16.0731 21.2681 14.6897C21.7657 13.6149 22.2633 12.54 22.761 11.4552C23.2586 10.3704 23.7562 9.29551 24.2538 8.22564C24.3981 7.942 24.5325 7.65836 24.6668 7.36974C24.8012 7.08112 24.9206 6.79748 25.04 6.51384C25.254 6.01623 25.5376 5.42407 25.9158 4.74731C26.294 4.07055 26.6324 3.4137 26.9708 2.75685C27.3092 2.1 27.7172 1.38342 28.2198 0.527527L28.4686 0.597185C28.5134 1.16944 28.5582 1.682 28.593 2.13483C28.6278 2.58766 28.6776 3.08528 28.7373 3.62768C28.797 4.17008 28.8468 4.71247 28.8966 5.23497C29.016 6.42593 29.1404 7.73466 29.2698 9.16116C29.4041 10.5894 29.5435 12.0324 29.6977 13.5004C29.852 14.9684 30.0162 16.3915 30.1953 17.7849C30.3745 19.1782 30.5287 20.4372 30.6929 21.5668C30.8572 22.6963 31.0214 23.6518 31.1906 24.4231C31.2643 24.9263 31.4207 25.4139 31.6533 25.8661C31.9153 26.282 32.2945 26.611 32.7431 26.8116C33.1178 26.9627 33.506 27.0777 33.9026 27.155L34.5644 27.2943C34.8163 27.3537 35.0614 27.4387 35.2959 27.5481L35.2909 27.8914Z"
            fill="#000D1F" />
        <path
            d="M8.03647 28.4736C7.11588 28.4736 6.20027 28.4387 5.31451 28.3641C4.11774 28.2694 2.91665 28.2412 1.71675 28.2795C1.40859 28.2911 1.10127 28.3193 0.796159 28.3641C0.628067 28.3881 0.457129 28.3475 0.317723 28.2506C0.178318 28.1537 0.0807914 28.0075 0.0447623 27.8416C-0.00671457 27.6746 0.00991076 27.4941 0.0910113 27.3394C0.172112 27.1846 0.311106 27.0682 0.477685 27.0156C0.600711 26.972 0.730352 26.9501 0.860852 26.9509C0.921116 26.934 0.982712 26.9224 1.04497 26.916C1.33164 26.8885 1.61398 26.8267 1.88594 26.7319C2.10509 26.6208 2.28678 26.4478 2.40844 26.2343C2.50168 25.8919 2.56659 25.5424 2.60251 25.1893C2.72193 24.4462 2.85297 23.5074 2.99562 22.3728C3.13827 21.2382 3.29253 19.9428 3.45841 18.4864C3.62262 17.0334 3.79181 15.5505 3.95602 14.0079C4.12023 12.4653 4.27947 10.9824 4.42378 9.49952C4.56809 8.01662 4.70742 6.64321 4.85173 5.39917C4.9214 4.82691 4.98609 4.25962 5.0458 3.69233L5.20503 2.13978C5.2548 1.67202 5.31451 1.14455 5.38915 0.542436C5.40193 0.435942 5.44544 0.335473 5.51437 0.253293C5.58329 0.171113 5.67465 0.11078 5.7773 0.0796568L6.03108 0.00998334C6.15068 -0.0254254 6.27884 -0.0185266 6.39395 0.0295126C6.50906 0.0775518 6.6041 0.163794 6.66305 0.273718L8.21561 3.13004C8.67839 3.99092 9.21084 4.98117 9.82291 6.11574C10.435 7.2503 11.052 8.41472 11.679 9.59904C12.306 10.7833 12.933 12.0075 13.5401 13.2067C14.1472 14.406 14.7045 15.5306 15.2071 16.5557C15.8042 17.8296 16.3566 19.0437 16.8393 20.2231C17.0931 20.8302 17.3369 21.3577 17.531 21.8105C18.0286 20.7804 18.4914 19.7255 18.9591 18.6656C19.5762 17.249 20.1949 15.8474 20.8152 14.4607C21.3128 13.3859 21.8105 12.316 22.3081 11.2312C22.8057 10.1464 23.3033 9.06161 23.8308 7.98676C23.9751 7.70312 24.1095 7.41949 24.2339 7.14082C24.3583 6.86216 24.4876 6.58348 24.6021 6.30482C24.831 5.77734 25.1345 5.16529 25.5028 4.48356C25.871 3.80182 26.2193 3.15491 26.5527 2.52792C26.8862 1.90092 27.3091 1.13957 27.8167 0.273718C27.8775 0.168585 27.9719 0.0869267 28.0847 0.0418133C28.1975 -0.00330023 28.3221 -0.00925738 28.4387 0.0249112L28.6875 0.0945847C28.797 0.125797 28.8938 0.190638 28.9644 0.279945C29.0349 0.369251 29.0756 0.4785 29.0806 0.592201L29.21 2.12983C29.2448 2.57768 29.2896 3.07032 29.3493 3.62268C29.4091 4.17503 29.4638 4.71245 29.5136 5.23993C29.633 6.42425 29.7574 7.728 29.8868 9.16611C30.0162 10.6042 30.1605 12.0323 30.3147 13.4953C30.469 14.9583 30.6282 16.3815 30.8123 17.7699C30.9965 19.1582 31.1457 20.4172 31.31 21.5418C31.4742 22.6664 31.6434 23.5969 31.8076 24.3583C31.8646 24.7859 31.9871 25.2021 32.1708 25.5924C32.3764 25.9249 32.6736 26.191 33.0267 26.3587C33.3698 26.495 33.7246 26.6 34.0867 26.6722L34.7535 26.8115C35.0448 26.8778 35.3283 26.9745 35.5994 27.1001C35.7062 27.1482 35.7947 27.2292 35.8521 27.3313C35.9094 27.4334 35.9324 27.5512 35.9179 27.6674L35.883 27.956C35.8718 28.092 35.8097 28.2187 35.7092 28.3109C35.6086 28.4032 35.4771 28.4541 35.3406 28.4537C34.0518 28.4537 32.768 28.4537 31.4791 28.4537C30.1903 28.4537 28.9015 28.4139 27.6077 28.3691C27.4945 28.3727 27.3823 28.3478 27.2814 28.2964C27.1804 28.2451 27.0941 28.1691 27.0305 28.0755C26.9678 27.9827 26.93 27.8756 26.9204 27.7641C26.9108 27.6526 26.9298 27.5406 26.9757 27.4385L27.1101 27.0355C27.2046 26.7518 27.3041 26.4682 27.3987 26.1945C27.4695 25.993 27.5065 25.7811 27.5082 25.5675C27.5082 23.7811 27.4186 21.92 27.2444 20.034C27.0703 18.1481 26.8762 16.3268 26.6672 14.6C26.6672 14.6 26.6672 14.5553 26.6672 14.5354C26.5229 13.4157 26.3985 12.3807 26.289 11.4203C26.2492 11.0172 26.1994 10.5942 26.1547 10.1613C25.2888 11.8632 24.4429 13.6197 23.6666 15.4062C22.5967 17.7848 21.5019 20.1534 20.4122 22.4474C19.9842 23.373 19.5496 24.3019 19.1084 25.2341C18.6705 26.1646 18.2177 27.0952 17.7698 28.0207C17.7161 28.1351 17.6309 28.2318 17.5243 28.2997C17.4177 28.3675 17.2941 28.4036 17.1677 28.4039C17.0685 28.403 16.9705 28.3818 16.8798 28.3416C16.789 28.3013 16.7075 28.243 16.6402 28.17C15.0999 26.0818 13.7667 23.8486 12.6593 21.502C11.5795 19.208 10.5395 16.9388 9.56913 14.7593L8.08623 11.6293C7.89216 11.1914 7.67819 10.7385 7.44929 10.2708C7.44929 10.4649 7.40449 10.6589 7.37961 10.848C7.28507 11.6193 7.19052 12.4056 7.10095 13.2167C6.83224 15.2071 6.60334 17.2772 6.41922 19.3224C6.2351 21.3676 6.13557 23.4377 6.13557 25.468C6.13557 25.9656 6.24008 26.2194 6.33462 26.289C6.64268 26.4986 6.97739 26.6659 7.32985 26.7866L7.78766 26.9509C7.96183 27.0106 8.14097 27.0802 8.32011 27.1599C8.47396 27.2334 8.59627 27.3598 8.66477 27.516C8.73327 27.6722 8.74341 27.8478 8.69332 28.0108C8.64697 28.1476 8.55837 28.2661 8.44032 28.3492C8.32227 28.4324 8.18086 28.4759 8.03647 28.4736ZM28.1501 27.2544C29.2647 27.2942 30.3595 27.3141 31.4592 27.3241H32.4545C31.9581 27.0739 31.5373 26.696 31.2353 26.2293C30.941 25.7254 30.753 25.1665 30.683 24.5872C30.5187 23.801 30.3446 22.8306 30.1853 21.696C30.0261 20.5615 29.847 19.2926 29.6877 17.8992C29.5285 16.5059 29.3593 15.0728 29.1901 13.6048C29.0209 12.1368 28.8915 10.6938 28.7622 9.26065C28.6328 7.82752 28.5034 6.52874 28.384 5.33944C28.3392 4.81197 28.2845 4.27953 28.2247 3.73713C28.165 3.19473 28.1202 2.68219 28.0804 2.24429V2.02534C27.8665 2.40352 27.6724 2.75682 27.5032 3.0753C27.1714 3.71224 26.8198 4.37573 26.4482 5.06576C26.09 5.72261 25.8063 6.29984 25.5923 6.7875C25.4729 7.07612 25.3485 7.36474 25.2142 7.65833C25.0798 7.95192 24.9405 8.24055 24.7912 8.53414C24.2737 9.5924 23.776 10.6623 23.2983 11.7437C22.8007 12.8285 22.3031 13.9084 21.8055 14.9782C21.1884 16.3517 20.5714 17.7466 19.9544 19.1632C19.3224 20.5963 18.6705 22.0145 18.0137 23.378C17.9684 23.4712 17.8977 23.5498 17.8096 23.6044C17.7215 23.659 17.6197 23.6875 17.516 23.6865C17.4133 23.689 17.312 23.6622 17.224 23.6094C17.1359 23.5565 17.0646 23.4797 17.0184 23.3879C16.7 22.7759 16.2869 21.8951 15.8042 20.7058C15.3216 19.5165 14.7742 18.3371 14.187 17.0881C13.6894 16.073 13.1387 14.965 12.5349 13.7641C11.9311 12.5631 11.3174 11.3539 10.6937 10.1364C10.0601 8.93555 9.4414 7.77445 8.83763 6.65315C8.23054 5.52357 7.69809 4.52834 7.23033 3.66746L6.30974 1.97059C6.30974 2.07011 6.30975 2.16963 6.27491 2.26418L6.11567 3.82172C6.05596 4.39398 5.99127 4.97121 5.9216 5.54347C5.77729 6.77258 5.63298 8.13604 5.49365 9.61894C5.35432 11.1018 5.19508 12.6046 5.02589 14.1422C4.8567 15.6799 4.69249 17.1279 4.52828 18.6208C4.36406 20.1136 4.20483 21.3726 4.0655 22.5171C3.92617 23.6616 3.78683 24.617 3.6674 25.3734C3.48329 26.5378 3.38874 26.7369 3.27926 26.8663C3.20775 26.9723 3.12964 27.0736 3.04538 27.1698C3.81669 27.1698 4.60292 27.2146 5.38418 27.2793L5.88179 27.3141C5.81154 27.2728 5.74344 27.228 5.67777 27.1798C5.23987 26.8712 5.02092 26.3089 5.02092 25.468C5.02092 23.4029 5.12044 21.3029 5.30954 19.2229C5.49863 17.1429 5.72753 15.0977 5.99127 13.0823C6.08581 12.2762 6.18037 11.485 6.27491 10.7137C6.36946 9.94239 6.44908 9.14621 6.52372 8.32017C6.53358 8.20212 6.58147 8.09045 6.6602 8.00193C6.73893 7.91341 6.84425 7.85284 6.96035 7.82928C7.07645 7.80572 7.19706 7.82046 7.30406 7.87128C7.41107 7.92211 7.49869 8.00629 7.55378 8.11116C8.12604 9.18104 8.63361 10.2111 9.04663 11.1764L10.44 14.2865C11.4053 16.4561 12.4304 18.7153 13.5252 21.0044C14.4952 23.0649 15.6442 25.0363 16.9587 26.8961L17.9987 24.7315C18.4366 23.8059 18.8696 22.8804 19.2975 21.9548C20.3823 19.6608 21.4721 17.2971 22.542 14.9285C23.6118 12.5598 24.7663 10.1961 25.9506 7.96188C26.0055 7.85729 26.0931 7.77347 26.1999 7.72318C26.3068 7.67288 26.4272 7.65885 26.5428 7.68322C26.6602 7.70686 26.7665 7.76833 26.8456 7.85821C26.9247 7.94809 26.9722 8.06142 26.9807 8.18084C27.0752 9.2955 27.1748 10.3205 27.2793 11.271C27.3838 12.2214 27.5032 13.1868 27.6425 14.2567V14.3313C27.8515 16.0979 28.0506 17.9689 28.2297 19.8947C28.4089 21.8204 28.4984 23.7164 28.4984 25.5327C28.4983 25.8716 28.4412 26.208 28.3292 26.5279C28.2994 26.7568 28.2148 27.0056 28.1302 27.2544H28.1501Z"
            fill="#000D1F" />
        <path
            d="M63.9934 27.8217C63.6768 27.8392 63.3595 27.8392 63.043 27.8217C62.7393 27.8133 62.4367 27.7834 62.1373 27.7321L61.3859 27.6625C61.1222 27.6376 60.8883 27.6227 60.6345 27.6227C60.0374 27.6227 59.4452 27.6227 58.848 27.6774C58.2509 27.7321 57.6588 27.757 57.0666 27.8068C56.9251 27.8301 56.782 27.8418 56.6386 27.8416C56.4952 27.8385 56.3518 27.8502 56.2107 27.8764C56.136 27.9013 56.0913 27.8764 56.0664 27.7869C56.0531 27.7515 56.0528 27.7126 56.0656 27.677C56.0783 27.6415 56.1033 27.6116 56.136 27.5928L58.0668 26.6971C57.4929 25.1744 56.909 23.6583 56.3152 22.1489C55.723 20.656 55.1358 19.1184 54.5686 17.5957H46.9998C46.8306 17.9988 46.5918 18.6158 46.2833 19.4518C45.9747 20.2878 45.6712 21.1487 45.3726 22.0394C45.074 22.9301 44.8153 23.7811 44.5864 24.5922C44.4059 25.1592 44.2923 25.7454 44.248 26.3388C44.2388 26.554 44.3098 26.765 44.4471 26.931C44.5838 27.0901 44.7536 27.2174 44.9447 27.3042C45.1407 27.4006 45.3506 27.4661 45.5667 27.4983C45.7956 27.5381 46.0046 27.5679 46.1937 27.5928V27.8764C45.9923 27.8517 45.7895 27.8401 45.5866 27.8416C45.3838 27.8406 45.1811 27.829 44.9795 27.8068C44.5715 27.757 44.1684 27.7222 43.7653 27.6973C43.3623 27.6724 42.9542 27.6625 42.5511 27.6625C42.1481 27.6625 41.6952 27.6625 41.2673 27.6973C40.8393 27.7321 40.4213 27.757 40.0183 27.8068C39.7545 27.8068 39.5207 27.8466 39.2519 27.8565C38.9832 27.8665 38.7543 27.8864 38.4806 27.9113C38.411 27.9113 38.3712 27.8715 38.3562 27.7869C38.3481 27.7533 38.3528 27.7178 38.3694 27.6875C38.3859 27.6571 38.4132 27.634 38.4458 27.6227C39.2854 27.5171 40.0875 27.2116 40.7846 26.7319C41.4432 26.2433 41.9461 25.5745 42.2327 24.8062C43.135 22.5403 43.9909 20.2795 44.8004 18.0236C45.6098 15.7678 46.4193 13.4837 47.2287 11.1715C47.8192 9.47961 48.4313 7.77778 49.0649 6.06598C49.6986 4.35418 50.3239 2.66394 50.9409 0.995275C50.948 0.962823 50.9664 0.93395 50.9929 0.913878C51.0193 0.893806 51.0521 0.883854 51.0852 0.885799C51.1176 0.88505 51.1491 0.895561 51.1746 0.915533C51.2 0.935506 51.2177 0.963697 51.2246 0.995275C51.344 1.32868 51.4784 1.67202 51.6177 2.03031C51.757 2.38859 51.8914 2.74189 52.0108 3.10018C52.6511 4.88828 53.3295 6.73278 54.0461 8.63368C54.7626 10.5345 55.5057 12.4387 56.2754 14.3463C57.0517 16.2538 57.8495 18.1282 58.6689 19.9693C59.4883 21.8105 60.3509 23.5887 61.2565 25.3038C61.5888 25.9684 62.1075 26.5217 62.7494 26.8961C63.4039 27.2326 64.1201 27.4324 64.8543 27.4833C64.9289 27.4833 64.9687 27.5281 64.9687 27.6227C64.9687 27.7172 64.9289 27.767 64.8543 27.767L63.9934 27.8217ZM50.8315 5.82712C50.712 6.16052 50.6026 6.48895 50.4931 6.82235C50.3836 7.15575 50.2841 7.45929 50.1895 7.76782C49.7151 9.19431 49.269 10.586 48.851 11.9428C48.433 13.2996 47.9751 14.6797 47.4775 16.083H53.9764L50.8315 5.82712Z"
            fill="#000D1F" />
        <path
            d="M38.4657 28.4736C38.3052 28.4666 38.152 28.4044 38.032 28.2975C37.9121 28.1905 37.8329 28.0454 37.8077 27.8867C37.7825 27.728 37.813 27.5655 37.8939 27.4267C37.9748 27.2879 38.1012 27.1813 38.2517 27.125C39.0385 27.0252 39.7914 26.7441 40.4512 26.304C41.0232 25.8744 41.4587 25.2886 41.7052 24.617C42.6009 22.3828 43.4617 20.1037 44.2679 17.8495C45.074 15.5953 45.8851 13.3112 46.6963 11.0023C47.2934 9.31041 47.9071 7.60692 48.5374 5.8918C49.1677 4.17669 49.7931 2.48645 50.4134 0.821097C50.4701 0.693562 50.5626 0.58521 50.6796 0.509161C50.7966 0.433112 50.9332 0.392639 51.0728 0.392639C51.2123 0.392639 51.3489 0.433112 51.4659 0.509161C51.583 0.58521 51.6754 0.693562 51.7321 0.821097C51.8416 1.13459 51.971 1.47297 52.1103 1.81633C52.2496 2.15968 52.3939 2.54782 52.5184 2.91605C53.1553 4.68757 53.8304 6.52543 54.5436 8.42964C55.2503 10.3156 55.9967 12.2314 56.768 14.1273C57.5393 16.0232 58.3454 17.9191 59.1565 19.7354C59.9677 21.5517 60.8335 23.3531 61.7292 25.04C62.0112 25.6081 62.4543 26.0806 63.0031 26.3985C63.5902 26.7031 64.2341 26.8827 64.8941 26.926C64.9797 26.929 65.0639 26.9495 65.1415 26.9861C65.219 27.0227 65.2883 27.0747 65.3451 27.139C65.4018 27.2032 65.445 27.2783 65.4718 27.3598C65.4986 27.4412 65.5086 27.5273 65.5012 27.6127C65.5073 27.7024 65.4949 27.7924 65.4646 27.8771C65.4343 27.9618 65.3868 28.0393 65.3251 28.1047C65.2634 28.1701 65.1888 28.2221 65.1061 28.2573C65.0234 28.2925 64.9342 28.3102 64.8443 28.3093L64.0133 28.3442C63.7147 28.3442 63.3713 28.3691 63.018 28.3442C62.6846 28.3348 62.3521 28.3032 62.0228 28.2496L61.3162 28.18C60.4996 28.12 59.6796 28.12 58.863 28.18C58.2708 28.2148 57.6786 28.2596 57.0865 28.3044C56.9521 28.3392 56.5291 28.3044 56.2953 28.3691C56.1268 28.4008 55.9526 28.367 55.8083 28.2745C55.6639 28.182 55.5605 28.0378 55.519 27.8715C55.4747 27.7241 55.4794 27.5664 55.5324 27.422C55.5853 27.2775 55.6836 27.1542 55.8126 27.0703L57.3552 26.3537C56.8576 24.9903 56.3201 23.6318 55.7877 22.2832C55.2552 20.9347 54.6979 19.4866 54.1655 18.0784H47.3481C47.1988 18.4566 47.0097 18.9592 46.7808 19.5712C46.4723 20.4006 46.1704 21.2581 45.8752 22.1439C45.5766 23.0247 45.3228 23.8706 45.0939 24.6718C44.9238 25.1895 44.8169 25.7258 44.7755 26.2691C44.7706 26.3108 44.7742 26.353 44.7862 26.3933C44.7982 26.4335 44.8182 26.4708 44.8451 26.503C44.9307 26.604 45.0356 26.6869 45.1536 26.7468C45.3001 26.8171 45.456 26.8657 45.6164 26.8912C45.8404 26.926 46.0394 26.9558 46.2235 26.9757C46.3595 26.9893 46.4856 27.0527 46.5775 27.1538C46.6694 27.2549 46.7206 27.3865 46.7211 27.5231V27.8068C46.7203 27.8838 46.7035 27.9598 46.6718 28.0301C46.6401 28.1003 46.5942 28.1632 46.537 28.2148C46.4792 28.2677 46.4104 28.3071 46.3356 28.3304C46.2607 28.3536 46.1817 28.36 46.1041 28.3492C45.7259 28.3044 45.2731 28.3492 44.8899 28.2795C44.5067 28.2098 44.1086 28.1999 43.7155 28.175C42.9034 28.1302 42.0894 28.1302 41.2772 28.175C40.8592 28.1999 40.4562 28.2347 40.0581 28.2795C39.7744 28.3044 39.5107 28.3243 39.2569 28.3342C39.0031 28.3442 38.7593 28.3641 38.5105 28.389L38.4657 28.4736ZM60.6345 27.0952C60.8883 27.0952 61.1321 27.0952 61.4306 27.13L62.1671 27.1997C61.5824 26.7717 61.1082 26.2104 60.7837 25.5625C59.8781 23.8457 59.0023 22.0394 58.1762 20.1883C57.3502 18.3371 56.554 16.4611 55.7728 14.5503C54.9915 12.6394 54.2451 10.7137 53.5385 8.82275C52.8319 6.93181 52.1451 5.07074 51.4982 3.2843C51.3788 2.92104 51.2544 2.57767 51.1151 2.22934L51.0902 2.16963C50.5926 3.52315 50.095 4.87667 49.5974 6.25009C48.9637 7.96188 48.3517 9.66041 47.7611 11.3456C46.9484 13.6678 46.1389 15.9536 45.3328 18.2028C44.5217 20.4669 43.6558 22.756 42.7551 25.0052C42.4352 25.859 41.8775 26.6032 41.1478 27.1499H41.2523C42.1042 27.1001 42.9582 27.1001 43.8101 27.1499H43.9643C43.8056 26.9059 43.7241 26.6198 43.7305 26.3288C43.7735 25.6848 43.8938 25.0483 44.0887 24.4329C44.3243 23.6168 44.5897 22.7576 44.8849 21.8553C45.1835 20.9596 45.487 20.0887 45.8005 19.2528C46.114 18.4168 46.3529 17.7848 46.5221 17.3767C46.5629 17.2779 46.6318 17.1932 46.7202 17.133C46.8087 17.0729 46.9128 17.04 47.0197 17.0384H54.5884C54.6972 17.0405 54.8029 17.0754 54.8916 17.1384C54.9804 17.2014 55.0481 17.2896 55.086 17.3917C55.6533 18.9144 56.2339 20.4288 56.8277 21.9349C57.4215 23.441 58.0054 24.9604 58.5793 26.4931C58.6246 26.6105 58.628 26.7399 58.589 26.8595C58.5501 26.9791 58.4711 27.0817 58.3653 27.1499L58.8231 27.1201C59.4253 27.1101 60.0274 27.0952 60.6345 27.0952ZM53.9614 16.6054H47.4626C47.3764 16.6026 47.2921 16.5795 47.2165 16.5379C47.1409 16.4964 47.0763 16.4375 47.0278 16.3662C46.9793 16.2949 46.9483 16.2132 46.9374 16.1276C46.9265 16.0421 46.9359 15.9551 46.965 15.8739C47.4626 14.4955 47.9204 13.1072 48.3334 11.7587C48.7464 10.4101 49.1993 9.0019 49.677 7.56876C49.7665 7.27019 49.871 6.94675 49.9805 6.6233C50.09 6.29985 50.2044 5.96644 50.3239 5.62807C50.3652 5.52196 50.4377 5.4309 50.5319 5.36693C50.6261 5.30295 50.7375 5.26908 50.8513 5.26978C50.9638 5.27414 51.0721 5.31337 51.1612 5.38202C51.2504 5.45067 51.316 5.54535 51.349 5.65294L54.4889 15.8988C54.5154 15.9825 54.5215 16.0713 54.5068 16.1579C54.4921 16.2444 54.4569 16.3262 54.4043 16.3964C54.3521 16.4636 54.2847 16.5175 54.2078 16.5538C54.1309 16.5901 54.0465 16.6078 53.9614 16.6054ZM48.2389 15.5107H53.215L50.7916 7.6036L50.7021 7.90217C50.2044 9.34028 49.7765 10.7286 49.3585 12.0771C49.0151 13.2216 48.6369 14.3711 48.2389 15.5256V15.5107Z"
            fill="#000D1F" />
        <path
            d="M93.4224 20.447C92.7537 22.1182 91.6961 23.6058 90.3372 24.7862C88.9374 25.9623 87.3066 26.8319 85.5501 27.339C83.5434 27.9175 81.4629 28.1992 79.3747 28.175C78.5437 28.175 77.7027 28.175 76.8617 28.1053C76.0208 28.0357 75.1748 27.9959 74.3438 27.9262L71.4327 27.7122C70.4525 27.6385 69.4686 27.6269 68.4869 27.6774C68.4172 27.6774 68.3774 27.6376 68.3625 27.553C68.3531 27.5193 68.3572 27.4834 68.374 27.4527C68.3907 27.4221 68.4187 27.3992 68.452 27.3888C68.8963 27.3009 69.3244 27.1448 69.7209 26.926C70.0189 26.7582 70.2704 26.5188 70.4524 26.2293C70.6296 25.9243 70.7398 25.585 70.7759 25.2341C70.8254 24.783 70.8487 24.3294 70.8455 23.8756V3.86648C70.8578 3.53727 70.8037 3.20894 70.6863 2.90111C70.5957 2.68744 70.4475 2.50313 70.2584 2.36867C70.0779 2.24899 69.8773 2.163 69.6662 2.11488L69.0243 1.97057C68.7854 1.92578 68.5764 1.881 68.4023 1.83124C68.3154 1.8089 68.234 1.76914 68.163 1.7144C68.092 1.65965 68.0329 1.59106 67.9892 1.51277C67.9196 1.39334 67.9544 1.32864 68.0937 1.32864C68.5267 1.32864 68.9596 1.32864 69.3975 1.32864C69.8354 1.32864 70.2633 1.35851 70.6664 1.38339C71.1889 1.42817 71.7064 1.46798 72.219 1.49286C72.7315 1.51774 73.2142 1.5277 73.7118 1.5277C74.3786 1.5277 75.0305 1.52769 75.7023 1.47295C76.3741 1.41822 76.9861 1.39334 77.6281 1.34855L79.5538 1.27391C80.2206 1.27391 80.8626 1.23907 81.4846 1.23907C83.0298 1.25342 84.5595 1.55024 85.998 2.11488C87.5122 2.68673 88.9238 3.50008 90.1779 4.52334C91.4111 5.52901 92.4499 6.75169 93.2432 8.13105C94.0329 9.47125 94.4471 10.9993 94.4425 12.5548V12.9828C94.4415 13.1262 94.4532 13.2694 94.4773 13.4107C94.5013 13.5538 94.5129 13.6986 94.5121 13.8437V14.2368C94.5627 16.3585 94.1923 18.4693 93.4224 20.447ZM90.3173 10.221C89.703 8.68351 88.7664 7.29549 87.5704 6.15054C86.3596 5.01051 84.924 4.13594 83.3556 3.58284C81.6328 2.96958 79.8149 2.66634 77.9863 2.68714C77.3285 2.68743 76.6716 2.73566 76.0208 2.83145C75.3665 2.92895 74.7221 3.08381 74.095 3.29423V22.537C74.068 23.2931 74.1758 24.048 74.4135 24.7663C74.5945 25.2839 74.9318 25.7326 75.3788 26.0502C75.8645 26.3709 76.4216 26.5675 77.0011 26.6224C77.7541 26.7117 78.5119 26.7532 79.2702 26.7469C80.9296 26.7714 82.5829 26.5397 84.1717 26.0601C85.5705 25.6379 86.8655 24.9277 87.9735 23.9751C89.0504 23.0179 89.8931 21.8262 90.4367 20.4918C91.0489 18.9421 91.3466 17.2861 91.3125 15.6202C91.3399 13.7724 91.0016 11.9376 90.3173 10.221Z"
            fill="#000D1F" />
        <path
            d="M79.3747 28.7224C78.5337 28.7224 77.6828 28.7224 76.8319 28.6527C75.9809 28.5831 75.135 28.5432 74.299 28.4736L71.3929 28.2596C70.4358 28.1884 69.4753 28.1768 68.5167 28.2248C68.3526 28.224 68.1941 28.1654 68.069 28.0592C67.9439 27.953 67.8604 27.8061 67.833 27.6443C67.8057 27.4825 67.8363 27.3163 67.9195 27.1748C68.0027 27.0334 68.1331 26.9259 68.2878 26.8713C68.6933 26.7916 69.0842 26.6506 69.4473 26.4533C69.6678 26.3367 69.8546 26.1653 69.9897 25.9556C70.1252 25.7208 70.2084 25.4594 70.2335 25.1893C70.2832 24.7616 70.3065 24.3311 70.3032 23.9005V3.86651C70.3159 3.61415 70.2769 3.36185 70.1887 3.12507C70.1426 3.00289 70.0612 2.8972 69.9548 2.82152C69.8318 2.7412 69.6952 2.68388 69.5518 2.65233L68.9148 2.50803C68.671 2.46325 68.452 2.4085 68.2629 2.35874C68.1061 2.31773 67.9591 2.24546 67.8308 2.14627C67.7026 2.04708 67.5957 1.92301 67.5165 1.7815C67.448 1.68185 67.4093 1.56475 67.4048 1.44389C67.4004 1.32303 67.4305 1.2034 67.4916 1.09901C67.5527 0.994623 67.6422 0.909779 67.7497 0.854397C67.8572 0.799015 67.9783 0.775383 68.0987 0.786273H69.4174C69.8653 0.786273 70.2932 0.816137 70.7062 0.841018C71.2337 0.89078 71.7462 0.925613 72.2488 0.950494C73.4232 1.00025 74.5677 0.990303 75.6774 0.950494C76.3143 0.915661 76.9513 0.870876 77.5932 0.82609L79.5389 0.751451C80.2157 0.751451 80.8626 0.716614 81.4895 0.716614C83.1009 0.732834 84.6959 1.04137 86.197 1.62724C87.7647 2.21799 89.2266 3.05818 90.5262 4.11532C91.8104 5.16475 92.8943 6.43753 93.7259 7.87233C94.5583 9.29781 94.9962 10.9191 94.9948 12.5698V12.9977C94.9955 13.111 95.0038 13.224 95.0197 13.3361C95.0494 13.5087 95.0644 13.6835 95.0645 13.8586V14.2517C95.1109 16.4382 94.7271 18.6126 93.9349 20.6511C93.231 22.4011 92.1206 23.9585 90.6954 25.1943C89.242 26.4213 87.5465 27.3283 85.7193 27.8565C83.658 28.4532 81.5205 28.745 79.3747 28.7224ZM70.4176 27.1101C70.7709 27.1101 71.1292 27.14 71.4825 27.1649L74.3936 27.3788C75.2296 27.4485 76.0606 27.5132 76.8816 27.558C79.942 27.7272 82.9127 27.558 85.3809 26.8115C87.0652 26.3293 88.6287 25.4967 89.9689 24.3683C91.2614 23.2429 92.2692 21.8276 92.9098 20.238C93.6429 18.3344 93.9979 16.3061 93.9548 14.2666V13.8735C93.9548 13.7584 93.9448 13.6436 93.925 13.5302C93.9001 13.3654 93.8868 13.1992 93.8852 13.0326V12.6046C93.8866 11.1458 93.4983 9.71307 92.7606 8.45453C91.9972 7.13355 91.0008 5.96182 89.8196 4.99611C88.6121 4.01029 87.2525 3.22713 85.7939 2.67722C84.4172 2.13702 82.9535 1.85205 81.4746 1.83625C80.8576 1.83625 80.2256 1.83625 79.5638 1.87109L77.638 1.94572C77.011 1.99051 76.3641 2.0353 75.7222 2.07013C74.5437 2.13249 73.3627 2.13249 72.1841 2.07013C71.6616 2.07013 71.1391 2.01041 70.6067 1.96065C70.8561 2.14526 71.0547 2.39007 71.1839 2.67224C71.336 3.04971 71.4072 3.45486 71.3929 3.86155V23.8856C71.3968 24.3627 71.3719 24.8396 71.3183 25.3137C71.27 25.7367 71.1345 26.1451 70.9202 26.513C70.7834 26.7389 70.6102 26.9406 70.4077 27.1101H70.4176ZM79.2801 27.2942C78.4986 27.3015 77.7173 27.2583 76.9413 27.1649C76.2745 27.1006 75.6336 26.8733 75.0753 26.503C74.5395 26.1202 74.1347 25.5815 73.9159 24.9604C73.6492 24.1813 73.5278 23.3599 73.5576 22.537V3.29426C73.5619 3.18324 73.6 3.07617 73.6666 2.98729C73.7333 2.8984 73.8254 2.83191 73.9308 2.79664C74.5885 2.57231 75.2645 2.40581 75.9511 2.29903C76.6283 2.19929 77.3118 2.1494 77.9963 2.14975C79.8889 2.13166 81.7701 2.44489 83.5547 3.07531C85.1906 3.65803 86.6883 4.57291 87.9536 5.76243C89.2042 6.96276 90.1861 8.41452 90.8348 10.022C91.5345 11.8007 91.8793 13.6991 91.8499 15.6102C91.8834 17.3497 91.5704 19.0785 90.9293 20.6958C90.3546 22.1073 89.4624 23.3674 88.3218 24.3782C87.163 25.3802 85.8068 26.1278 84.3409 26.5727C82.6976 27.0717 80.9874 27.3151 79.2702 27.2942H79.2801ZM74.6523 3.69733V22.537C74.6272 23.2268 74.7232 23.9156 74.936 24.5723C75.0785 24.9867 75.3463 25.3467 75.7023 25.6023C76.1138 25.879 76.5873 26.0499 77.0807 26.0999C77.8107 26.185 78.5452 26.2249 79.2801 26.2194C80.881 26.2377 82.4752 26.0112 84.0075 25.5476C85.3348 25.1443 86.5623 24.4661 87.6102 23.5571C88.624 22.6559 89.4173 21.534 89.9291 20.2779C90.5128 18.7941 90.797 17.2094 90.7651 15.6152C90.7916 13.8417 90.4704 12.0801 89.8196 10.43C89.2313 8.96728 88.3391 7.64602 87.2022 6.55364C86.0449 5.46804 84.6762 4.63289 83.1815 4.10039C81.5169 3.51156 79.7618 3.22017 77.9963 3.23953C77.3651 3.24083 76.7348 3.28739 76.1103 3.37886C75.6139 3.44939 75.1233 3.55582 74.6424 3.69733H74.6523Z"
            fill="#000D1F" />
        <path
            d="M119.074 27.8218C118.76 27.8393 118.444 27.8393 118.129 27.8218C117.824 27.8137 117.519 27.7837 117.218 27.7322L116.467 27.6626C116.203 27.6377 115.969 27.6228 115.72 27.6228C115.123 27.6228 114.526 27.6227 113.934 27.6775C113.342 27.7322 112.745 27.7571 112.148 27.8069C112.006 27.8305 111.863 27.8421 111.72 27.8417C111.576 27.839 111.433 27.8507 111.292 27.8765C111.222 27.9014 111.172 27.8765 111.147 27.787C111.133 27.7511 111.133 27.7114 111.147 27.6755C111.161 27.6396 111.188 27.6101 111.222 27.5929L113.148 26.6972C112.574 25.1745 111.99 23.6584 111.396 22.149C110.802 20.6396 110.22 19.1235 109.65 17.6008H102.086C101.922 18.0038 101.683 18.6209 101.374 19.4569C101.066 20.2929 100.757 21.1537 100.464 22.0445C100.17 22.9352 99.9013 23.7861 99.6774 24.5972C99.4943 25.1636 99.3807 25.7501 99.339 26.3439C99.3303 26.5582 99.3992 26.7685 99.533 26.936C99.6709 27.094 99.8404 27.2212 100.031 27.3093C100.227 27.4057 100.437 27.4711 100.653 27.5033C100.882 27.5431 101.091 27.573 101.28 27.5979V27.8815C101.078 27.8568 100.875 27.8451 100.673 27.8467C100.47 27.8457 100.267 27.8341 100.065 27.8118C99.6624 27.7621 99.2544 27.7272 98.8513 27.7024C98.4482 27.6775 98.0452 27.6675 97.6371 27.6675C97.2291 27.6675 96.7812 27.6675 96.3533 27.7024C95.9253 27.7372 95.5073 27.7621 95.1043 27.8118C94.8405 27.8118 94.6066 27.8516 94.3379 27.8616C94.0692 27.8716 93.8403 27.8915 93.5666 27.9163C93.497 27.9163 93.4572 27.8765 93.4472 27.7919C93.4376 27.7589 93.4411 27.7235 93.4568 27.693C93.4725 27.6624 93.4994 27.6391 93.5318 27.6277C94.3714 27.5222 95.1735 27.2167 95.8706 26.737C96.5306 26.2499 97.0339 25.5805 97.3187 24.8112C98.2243 22.5454 99.0802 20.2846 99.8863 18.0287C100.692 15.7729 101.502 13.4888 102.315 11.1766C102.912 9.48462 103.526 7.78277 104.156 6.07097C104.786 4.35918 105.41 2.66896 106.027 1.00028C106.035 0.968304 106.054 0.939989 106.08 0.920073C106.106 0.900157 106.138 0.889839 106.171 0.89081C106.204 0.890716 106.236 0.901371 106.262 0.921151C106.288 0.940932 106.307 0.968742 106.316 1.00028C106.43 1.33369 106.564 1.67704 106.704 2.03532C106.843 2.3936 106.977 2.74691 107.097 3.10519C107.76 4.89329 108.439 6.73778 109.132 8.63867C109.825 10.5396 110.57 12.4438 111.366 14.3513C112.139 16.2589 112.937 18.1332 113.76 19.9744C114.583 21.8156 115.445 23.5937 116.347 25.3088C116.678 25.9745 117.197 26.5282 117.84 26.9012C118.495 27.2377 119.211 27.4375 119.945 27.4884C120.015 27.4884 120.055 27.5332 120.055 27.6277C120.055 27.7223 120.015 27.772 119.945 27.772L119.074 27.8218ZM105.903 5.82715C105.783 6.16055 105.669 6.48897 105.564 6.82238C105.46 7.15578 105.355 7.45932 105.261 7.76784C104.783 9.19434 104.337 10.5861 103.922 11.9429C103.507 13.2997 103.048 14.6798 102.544 16.0831H109.052L105.903 5.82715Z"
            fill="#000D1F" />
        <path
            d="M93.5467 28.4736C93.383 28.4718 93.2252 28.4119 93.1014 28.3047C92.9776 28.1974 92.8959 28.0497 92.8708 27.8879C92.8457 27.726 92.8789 27.5605 92.9644 27.4208C93.0499 27.2811 93.1822 27.1763 93.3378 27.125C94.1228 27.0245 94.8739 26.7434 95.5322 26.304C96.1057 25.8747 96.5428 25.2889 96.7912 24.617C97.6819 22.3828 98.5478 20.1037 99.3539 17.8495C100.16 15.5953 100.966 13.3112 101.777 11.0023C102.374 9.31041 102.988 7.60692 103.618 5.8918C104.249 4.17669 104.874 2.48645 105.495 0.821097C105.551 0.693562 105.644 0.58521 105.761 0.509161C105.878 0.433112 106.014 0.392639 106.154 0.392639C106.293 0.392639 106.43 0.433112 106.547 0.509161C106.664 0.58521 106.756 0.693562 106.813 0.821097C106.928 1.13459 107.057 1.47297 107.196 1.81633C107.336 2.15968 107.475 2.54782 107.599 2.91605C108.236 4.68757 108.911 6.52543 109.625 8.42964C110.331 10.3156 111.083 12.2314 111.849 14.1273C112.615 16.0232 113.427 17.9191 114.238 19.7354C115.049 21.5517 115.92 23.3531 116.81 25.04C117.094 25.6071 117.536 26.0792 118.084 26.3985C118.673 26.7031 119.319 26.8826 119.98 26.926C120.065 26.9304 120.149 26.9518 120.226 26.9888C120.303 27.0259 120.371 27.0779 120.428 27.1419C120.484 27.2058 120.528 27.2804 120.555 27.3612C120.582 27.4421 120.593 27.5276 120.587 27.6127C120.593 27.7022 120.58 27.792 120.549 27.8763C120.519 27.9606 120.471 28.0378 120.409 28.1031C120.348 28.1684 120.274 28.2204 120.191 28.2558C120.109 28.2913 120.02 28.3095 119.93 28.3093L119.094 28.3442C118.796 28.3442 118.452 28.3691 118.099 28.3442C117.766 28.3353 117.433 28.3037 117.104 28.2496L116.392 28.18C115.576 28.12 114.756 28.12 113.939 28.18C113.352 28.2148 112.76 28.2596 112.168 28.3044C112.033 28.3392 111.61 28.3044 111.371 28.3691C111.203 28.4008 111.029 28.367 110.884 28.2745C110.74 28.182 110.637 28.0378 110.595 27.8715C110.551 27.7241 110.556 27.5664 110.608 27.422C110.661 27.2775 110.76 27.1542 110.889 27.0703L112.431 26.3537C111.92 24.9903 111.398 23.6334 110.864 22.2832C110.311 20.8849 109.774 19.4866 109.247 18.0784H102.449C102.3 18.4566 102.111 18.9592 101.882 19.5712C101.573 20.4022 101.275 21.2581 100.976 22.1439C100.678 23.0297 100.424 23.8706 100.2 24.6718C100.03 25.1895 99.9228 25.7258 99.8814 26.2691C99.8761 26.3105 99.8791 26.3524 99.8902 26.3926C99.9013 26.4327 99.9203 26.4703 99.9461 26.503C100.032 26.604 100.137 26.6869 100.255 26.7468C100.401 26.8164 100.557 26.865 100.717 26.8912C100.941 26.926 101.14 26.9558 101.329 26.9757C101.466 26.9882 101.593 27.0513 101.685 27.1526C101.777 27.254 101.828 27.3862 101.827 27.5231V27.8068C101.827 27.884 101.811 27.9603 101.779 28.0307C101.747 28.101 101.701 28.1638 101.643 28.2148C101.586 28.2673 101.518 28.3065 101.444 28.3297C101.37 28.353 101.292 28.3596 101.215 28.3492C100.832 28.3044 100.379 28.3492 100.001 28.2795C99.6226 28.2098 99.2146 28.1999 98.8215 28.175C98.0093 28.1302 97.1953 28.1302 96.3832 28.175C95.9652 28.1999 95.5621 28.2347 95.169 28.2795C94.8853 28.3044 94.6216 28.3243 94.3628 28.3342C94.1041 28.3442 93.8652 28.3641 93.6164 28.389L93.5467 28.4736ZM115.721 27.0952C115.969 27.0952 116.218 27.0952 116.517 27.13L117.253 27.1997C116.661 26.7814 116.178 26.2267 115.845 25.5824C114.939 23.8657 114.063 22.0593 113.237 20.2082C112.411 18.357 111.615 16.481 110.839 14.5702C110.063 12.6593 109.311 10.7336 108.6 8.84266C107.888 6.95172 107.206 5.09063 106.564 3.30419C106.445 2.94093 106.316 2.59758 106.176 2.24925C106.176 2.24925 106.176 2.20944 106.176 2.18954C105.679 3.54305 105.181 4.89657 104.683 6.26999C104.053 7.98179 103.441 9.68031 102.847 11.3655C102.038 13.6877 101.228 15.9735 100.419 18.2227C99.6077 20.4868 98.7419 22.7759 97.8412 25.0251C97.5213 25.8789 96.9635 26.6231 96.2339 27.1698H96.3384C97.1919 27.1201 98.0476 27.1201 98.9011 27.1698H99.0504C98.8942 26.9247 98.8129 26.6394 98.8165 26.3487C98.8593 25.7043 98.9814 25.0675 99.1798 24.4528C99.4087 23.6367 99.6724 22.7775 99.971 21.8752C100.27 20.9795 100.578 20.1086 100.887 19.2726C101.195 18.4367 101.444 17.8047 101.608 17.3966C101.649 17.2978 101.718 17.2131 101.806 17.1529C101.895 17.0928 101.999 17.0599 102.106 17.0583H109.65C109.758 17.0604 109.864 17.0953 109.953 17.1583C110.042 17.2213 110.109 17.3096 110.147 17.4116C110.719 18.9343 111.297 20.447 111.894 21.9548C112.491 23.4626 113.073 24.9903 113.645 26.513C113.69 26.6309 113.693 26.7607 113.653 26.8804C113.613 27.0001 113.533 27.1023 113.427 27.1698L113.889 27.14C114.526 27.1101 115.113 27.0952 115.721 27.0952ZM109.052 16.6054H102.544C102.456 16.6051 102.37 16.5841 102.292 16.5444C102.215 16.5046 102.147 16.4471 102.096 16.3765C102.047 16.3043 102.016 16.2217 102.005 16.1353C101.994 16.049 102.003 15.9612 102.031 15.8789C102.529 14.5005 102.982 13.1122 103.395 11.7636C103.808 10.4151 104.26 9.00688 104.738 7.57374C104.833 7.27518 104.932 6.95173 105.042 6.62828C105.151 6.30483 105.266 5.97143 105.385 5.63305C105.426 5.52695 105.499 5.43588 105.593 5.37191C105.687 5.30793 105.799 5.27406 105.913 5.27476C106.025 5.27839 106.134 5.31733 106.223 5.38609C106.312 5.45485 106.378 5.54994 106.41 5.65792L109.55 15.9137C109.576 15.9972 109.582 16.0856 109.569 16.1719C109.555 16.2582 109.521 16.3402 109.47 16.4114C109.419 16.4719 109.355 16.5206 109.283 16.5541C109.211 16.5876 109.132 16.6051 109.052 16.6054ZM103.33 15.5107H108.306L105.883 7.6036C105.848 7.70312 105.818 7.80265 105.788 7.90217C105.29 9.34028 104.863 10.7286 104.45 12.0771C104.076 13.2216 103.723 14.3711 103.32 15.5256L103.33 15.5107Z"
            fill="#000D1F" />
        <path
            d="M147.827 28.2098C147.237 28.3541 146.632 28.426 146.025 28.4238C145.136 28.4327 144.256 28.2387 143.453 27.8565C142.664 27.4707 141.933 26.9785 141.278 26.3935C140.597 25.7806 139.975 25.1041 139.422 24.3732C138.85 23.6268 138.317 22.8804 137.815 22.1439C137.312 21.4074 136.75 20.651 136.118 19.82C135.564 19.0943 134.937 18.4273 134.247 17.8296C133.783 17.4302 133.212 17.1758 132.605 17.0981C131.989 17.0147 131.369 16.9731 130.749 16.9737H129.952C129.689 16.9737 129.455 16.9737 129.166 17.0085V23.8955C129.14 24.8047 129.452 25.6913 130.042 26.3836C130.33 26.7193 130.683 26.9946 131.078 27.1936C131.473 27.3926 131.904 27.5114 132.346 27.543V27.8316C131.604 27.757 130.853 27.6973 130.131 27.6475C129.41 27.5978 128.639 27.5779 127.917 27.5779C127.196 27.5779 126.454 27.6077 125.743 27.6674C125.031 27.7271 124.299 27.8068 123.563 27.9013C123.493 27.9262 123.444 27.9013 123.419 27.8117C123.405 27.7759 123.405 27.7361 123.418 27.7002C123.432 27.6643 123.459 27.6349 123.493 27.6177C124.189 27.2998 124.786 26.7994 125.22 26.1696C125.673 25.5538 125.917 24.8092 125.917 24.0448V4.68753C125.917 4.31675 125.844 3.94959 125.7 3.60773C125.556 3.26587 125.346 2.95622 125.081 2.69707C124.551 2.14391 123.877 1.74933 123.135 1.55754C123.119 1.55469 123.104 1.54856 123.091 1.53956C123.078 1.53056 123.067 1.51887 123.058 1.50527C123.05 1.49167 123.044 1.47647 123.042 1.46061C123.04 1.44476 123.041 1.42861 123.045 1.41323C123.046 1.39775 123.05 1.38256 123.056 1.36857C123.063 1.35458 123.073 1.34208 123.084 1.33185C123.096 1.32161 123.109 1.31384 123.124 1.30901C123.139 1.30418 123.154 1.30239 123.17 1.30375H123.847C124.205 1.30375 124.563 1.30375 124.916 1.30375C125.27 1.30375 125.618 1.3336 125.951 1.35848C126.668 1.42815 127.38 1.46299 128.096 1.46299C128.813 1.46299 129.629 1.42815 130.415 1.35848C130.818 1.3336 131.206 1.31868 131.575 1.30375C131.943 1.28883 132.331 1.30375 132.739 1.30375C133.725 1.30265 134.708 1.42299 135.665 1.66204C136.575 1.8816 137.438 2.2625 138.213 2.78665C138.962 3.29961 139.581 3.98139 140.019 4.77712C140.5 5.69663 140.734 6.72568 140.696 7.76281C140.694 8.53111 140.575 9.29463 140.343 10.027C140.103 10.757 139.79 11.4607 139.407 12.1269C139.017 12.8158 138.564 13.4672 138.054 14.0726C137.565 14.6531 137.047 15.2078 136.501 15.7346C136.834 16.1128 137.222 16.6154 137.675 17.2275C138.128 17.8395 138.591 18.4765 139.069 19.1184C139.785 20.1136 140.532 21.1088 141.318 22.1041C142.068 23.0885 142.9 24.0075 143.806 24.8509C144.611 25.6184 145.524 26.2624 146.518 26.7618C147.43 27.2134 148.454 27.3864 149.464 27.2594L149.534 27.548C148.989 27.8279 148.417 28.0497 147.827 28.2098ZM136.979 7.00642C136.738 6.17785 136.364 5.39443 135.869 4.68753C135.393 4.00826 134.779 3.43688 134.068 3.01057C133.313 2.57314 132.452 2.35113 131.58 2.36866C131.178 2.36824 130.777 2.39818 130.38 2.45823C129.985 2.51895 129.596 2.61897 129.221 2.7568V14.8986C129.771 14.9936 130.326 15.0584 130.883 15.0927C131.44 15.1275 131.983 15.1474 132.505 15.1474C134.316 15.1474 135.575 14.6498 136.292 13.6546C137.064 12.4443 137.438 11.0227 137.362 9.58905C137.358 8.71433 137.229 7.84469 136.979 7.00642Z"
            fill="#000D1F" />
        <path
            d="M146.025 28.9763C145.054 28.9825 144.095 28.7682 143.219 28.3493C142.381 27.9431 141.604 27.4222 140.91 26.8017C140.204 26.1648 139.559 25.4635 138.984 24.7067C138.412 23.9553 137.869 23.2139 137.362 22.4525C136.854 21.6912 136.312 20.9597 135.69 20.1585C135.156 19.4622 134.554 18.8205 133.893 18.2427C133.508 17.9113 133.034 17.7002 132.53 17.6356C131.939 17.5563 131.344 17.5164 130.749 17.5162H129.723V23.8906C129.697 24.6666 129.962 25.4243 130.465 26.0155C130.706 26.3016 131.002 26.537 131.335 26.7078C131.669 26.8786 132.032 26.9816 132.406 27.0107C132.541 27.0231 132.667 27.0855 132.759 27.1858C132.851 27.286 132.903 27.417 132.903 27.5531V27.8417C132.902 27.918 132.885 27.9933 132.854 28.0627C132.822 28.1321 132.776 28.1941 132.719 28.2448C132.662 28.2949 132.596 28.3331 132.524 28.3571C132.452 28.381 132.377 28.3902 132.301 28.3841C131.57 28.3144 130.838 28.2547 130.107 28.2099C128.67 28.1054 127.228 28.1054 125.792 28.2099C125.091 28.2697 124.374 28.3443 123.643 28.4388C123.48 28.4579 123.316 28.4182 123.18 28.327C123.044 28.2358 122.945 28.0989 122.901 27.9412C122.856 27.7939 122.86 27.636 122.913 27.4913C122.966 27.3467 123.065 27.2234 123.195 27.1401C123.835 26.8579 124.386 26.4052 124.787 25.8313C125.172 25.308 125.38 24.6749 125.379 24.025V4.6876C125.382 4.38584 125.322 4.08679 125.205 3.80872C125.088 3.53066 124.915 3.27941 124.698 3.07035C124.237 2.58841 123.651 2.24387 123.006 2.07512C122.841 2.03261 122.698 1.92965 122.606 1.78672C122.514 1.64379 122.479 1.47139 122.508 1.30382C122.534 1.14655 122.616 1.00385 122.738 0.901605C122.86 0.799358 123.015 0.744334 123.175 0.746495H123.852C124.215 0.746495 124.578 0.746495 124.941 0.746495C125.305 0.746495 125.658 0.776344 125.996 0.801225C127.451 0.940544 128.916 0.940544 130.37 0.801225C130.798 0.801225 131.191 0.761423 131.565 0.746495C132.986 0.675912 134.41 0.794719 135.799 1.0998C136.774 1.33776 137.698 1.7454 138.531 2.30403C139.355 2.86143 140.037 3.60457 140.522 4.47363C141.044 5.46792 141.301 6.58033 141.268 7.70315C141.271 8.52834 141.147 9.34903 140.9 10.1365C140.645 10.9226 140.311 11.6811 139.905 12.4007C139.495 13.1167 139.022 13.7945 138.491 14.426C138.088 14.9236 137.68 15.3516 137.262 15.7696C137.526 16.093 137.82 16.4762 138.138 16.9091L139.526 18.8C140.243 19.7754 140.991 20.7706 141.771 21.7857C142.504 22.744 143.315 23.641 144.194 24.4679C144.962 25.1953 145.832 25.8071 146.777 26.2842C147.591 26.6964 148.508 26.8591 149.414 26.7519C149.545 26.737 149.678 26.7701 149.787 26.8451C149.895 26.9201 149.973 27.0319 150.006 27.16L150.081 27.4486C150.112 27.5709 150.099 27.7001 150.046 27.8144C149.992 27.9286 149.901 28.0209 149.787 28.0756C149.209 28.3513 148.604 28.5664 147.981 28.7175C147.342 28.8837 146.685 28.9706 146.025 28.9763ZM129.952 16.4164H130.739C131.384 16.4169 132.03 16.4618 132.669 16.5508C133.379 16.6425 134.047 16.94 134.59 17.4067C135.311 18.0304 135.965 18.7275 136.541 19.4867C137.183 20.3078 137.76 21.099 138.258 21.8355C138.755 22.572 139.288 23.3283 139.845 24.0399C140.378 24.7417 140.976 25.3915 141.631 25.9806C142.247 26.535 142.937 27.0006 143.682 27.364C144.865 27.8902 146.186 28.0194 147.448 27.7322C147.036 27.6292 146.636 27.4824 146.254 27.2943C145.216 26.771 144.259 26.1006 143.413 25.3039C142.497 24.4339 141.657 23.4884 140.9 22.4774C140.11 21.4523 139.357 20.4488 138.641 19.4668L137.247 17.5759C136.809 16.9738 136.421 16.4811 136.103 16.1129C136.009 16.0072 135.96 15.8689 135.966 15.7276C135.973 15.5863 136.034 15.4532 136.138 15.3565C136.664 14.8442 137.162 14.3043 137.631 13.7393C138.113 13.1593 138.541 12.5363 138.909 11.8782C139.278 11.2258 139.578 10.5371 139.805 9.823C140.026 9.1448 140.138 8.43618 140.139 7.72306C140.17 6.7869 139.961 5.85826 139.531 5.02599C139.133 4.30759 138.573 3.69236 137.894 3.22959C137.173 2.74105 136.368 2.38702 135.521 2.18459C134.42 1.92939 133.291 1.81568 132.162 1.84622C132.926 1.91224 133.666 2.1486 134.326 2.53791C135.109 3.0041 135.787 3.62764 136.317 4.36913C136.849 5.12609 137.249 5.96723 137.501 6.85721C137.762 7.74275 137.896 8.66091 137.899 9.58415C137.976 11.1339 137.565 12.6687 136.725 13.9732C135.909 15.1177 134.486 15.6999 132.495 15.6999C131.963 15.6999 131.405 15.6999 130.838 15.6451C130.271 15.5904 129.679 15.5357 129.116 15.4411C128.99 15.4189 128.875 15.3529 128.792 15.2547C128.709 15.1564 128.664 15.0322 128.664 14.9037V2.76183C128.667 2.6526 128.703 2.54684 128.766 2.45816C128.83 2.36947 128.919 2.30192 129.022 2.26422C129.379 2.13126 129.747 2.0297 130.122 1.96068C128.719 2.0776 127.308 2.06761 125.907 1.93082L124.991 1.88106C125.165 2.0191 125.331 2.16696 125.489 2.32393C125.806 2.63403 126.058 3.00491 126.229 3.41444C126.4 3.82396 126.487 4.26373 126.484 4.70751V24.0548C126.483 24.9328 126.204 25.788 125.688 26.4981C125.512 26.7452 125.316 26.9766 125.101 27.1898L125.713 27.1351C127.135 27.024 128.563 27.0124 129.987 27.1003C129.867 26.9904 129.752 26.8741 129.644 26.7519C128.975 25.9589 128.621 24.9477 128.649 23.9105V17.0036C128.648 16.8667 128.699 16.7345 128.791 16.6332C128.883 16.5318 129.01 16.4687 129.146 16.4563C129.405 16.4314 129.684 16.4164 129.952 16.4164ZM129.748 14.426C130.126 14.4807 130.515 14.5205 130.898 14.5454C131.445 14.5802 131.973 14.6002 132.485 14.6002C134.097 14.6002 135.222 14.1722 135.824 13.3312C136.528 12.2109 136.867 10.9001 136.795 9.57917C136.792 8.76037 136.673 7.9461 136.441 7.16075C136.221 6.38973 135.873 5.66129 135.411 5.00608C134.979 4.38775 134.421 3.86727 133.774 3.4784C132.751 2.94022 131.576 2.7648 130.44 2.98078C130.206 3.01794 129.975 3.06946 129.748 3.13504V14.426Z"
            fill="#000D1F" />
        <path
            d="M34.7137 47.7711L33.6836 47.7263C33.3502 47.7263 33.0068 47.7263 32.6585 47.7263H31.8723H31.0811C31.0512 47.7263 31.0363 47.7263 31.0313 47.6766C31.0263 47.6268 31.0313 47.6168 31.0661 47.6069C31.1146 47.589 31.1645 47.5757 31.2154 47.5671C31.2651 47.5622 31.3151 47.5622 31.3647 47.5671C31.4276 47.568 31.4899 47.5547 31.5468 47.5279C31.6037 47.5012 31.6537 47.4618 31.6931 47.4128C31.7867 47.3007 31.8592 47.1726 31.9071 47.0346C31.9621 46.8885 32.0005 46.7365 32.0216 46.5818C32.0384 46.4514 32.0467 46.3201 32.0464 46.1887V41.9838H25.8014V46.2384C25.7749 46.6105 25.8945 46.9782 26.1348 47.2635C26.4058 47.5149 26.7604 47.6567 27.13 47.6616C27.1599 47.6616 27.1748 47.6616 27.1748 47.7263C27.1748 47.791 27.1748 47.7811 27.13 47.7811H26.5229H25.8959H25.3983H24.4031H23.8806H23.6965H23.5123C23.5054 47.7818 23.4984 47.781 23.4918 47.7788C23.4851 47.7766 23.479 47.7731 23.4739 47.7684C23.4687 47.7637 23.4646 47.7579 23.4618 47.7515C23.459 47.7452 23.4576 47.7383 23.4576 47.7313C23.4544 47.7168 23.4567 47.7016 23.4641 47.6888C23.4714 47.6759 23.4833 47.6662 23.4974 47.6616C23.683 47.6363 23.865 47.5896 24.0398 47.5223C24.1569 47.4791 24.2612 47.4072 24.3434 47.3133C24.4147 47.209 24.4544 47.0863 24.4578 46.96C24.4803 46.7768 24.4902 46.5922 24.4877 46.4076V37.8387C24.4952 37.7013 24.4655 37.5645 24.4015 37.4427C24.3376 37.3209 24.2418 37.2187 24.1244 37.147C23.8912 36.9951 23.6212 36.9091 23.3431 36.8982V36.7788L24.2488 36.8335C24.5474 36.8335 24.8459 36.8335 25.1445 36.8335H25.8262C26.0551 36.8335 26.2841 36.8335 26.513 36.8086H26.8414C26.8712 36.8086 26.8812 36.8086 26.8812 36.8634C26.8812 36.9181 26.8812 36.9231 26.8414 36.9231C26.5868 36.9281 26.3406 37.0154 26.1397 37.1719C26.0416 37.2478 25.9633 37.3462 25.9113 37.4588C25.8593 37.5714 25.8353 37.6949 25.8412 37.8188V41.3419H32.0713V37.8934C32.0778 37.7561 32.0558 37.6188 32.0066 37.4903C31.965 37.3945 31.8978 37.3119 31.8126 37.2515C31.725 37.19 31.6273 37.1445 31.5239 37.1171L31.1806 37.0127L30.882 36.9231C30.8522 36.9231 30.8422 36.8932 30.8472 36.8584C30.8522 36.8236 30.8472 36.8086 30.8969 36.8086L31.8922 36.8584C32.2206 36.8584 32.5391 36.8584 32.8576 36.8584C33.3552 36.8584 33.8976 36.8584 34.435 36.8136C34.4649 36.8136 34.4798 36.8136 34.4848 36.8683C34.4897 36.9231 34.4848 36.9231 34.4499 36.933C34.1978 36.9775 33.9543 37.0615 33.7284 37.1818C33.5443 37.2814 33.4547 37.5103 33.4547 37.8586V46.114C33.4231 46.4918 33.5331 46.8678 33.7632 47.169C34.0352 47.4274 34.3852 47.5884 34.7584 47.6268L34.7137 47.7711Z"
            fill="#CEB27C" />
        <path
            d="M51.4385 44.7606C51.1338 45.4075 50.7062 45.9888 50.1795 46.4724C49.6473 46.9593 49.0276 47.3409 48.3533 47.597C47.6539 47.8624 46.9118 47.9973 46.1638 47.9951C45.7244 47.9914 45.2882 47.9209 44.87 47.7861C44.4133 47.6438 43.9743 47.4502 43.5612 47.2089C43.1305 46.9572 42.7255 46.6639 42.352 46.3331C41.9851 46.0036 41.6517 45.6385 41.3568 45.2433C41.0735 44.8692 40.841 44.4592 40.6651 44.0241C40.4989 43.6129 40.4128 43.1738 40.4113 42.7303C40.3993 41.8931 40.4896 41.0576 40.6801 40.2423C40.8327 39.5848 41.1372 38.9723 41.5693 38.4538C42.0014 37.9353 42.549 37.5252 43.1681 37.2566C43.9365 36.9035 44.7454 36.6461 45.5766 36.4902H45.696H45.8304C46.657 36.4821 47.4766 36.6429 48.2388 36.963C48.966 37.2679 49.6259 37.7132 50.1809 38.2733C50.7359 38.8334 51.1751 39.4974 51.4733 40.2273C51.789 40.9942 51.9481 41.8165 51.9411 42.6458C51.9315 43.3791 51.7598 44.1013 51.4385 44.7606ZM50.3338 40.5906C50.1454 39.9553 49.851 39.3563 49.463 38.8191C49.0877 38.2958 48.6039 37.8596 48.0448 37.5402C47.4509 37.2025 46.7772 37.0307 46.0941 37.0426C45.46 37.0318 44.8314 37.1609 44.2529 37.4208C43.731 37.662 43.2676 38.0134 42.8944 38.4509C42.5206 38.8974 42.2382 39.4131 42.0634 39.9686C41.8711 40.5666 41.7754 41.1915 41.7798 41.8197C41.7824 42.4949 41.8864 43.1659 42.0883 43.8102C42.2794 44.4528 42.5808 45.0573 42.979 45.5966C43.3671 46.1202 43.8582 46.5587 44.4221 46.8854C45.0184 47.2217 45.6933 47.3934 46.3778 47.383C47.0077 47.3949 47.6315 47.2585 48.199 46.9849C48.717 46.7354 49.1739 46.3753 49.5376 45.93C49.9088 45.4777 50.1877 44.957 50.3587 44.3973C50.5421 43.8026 50.6344 43.1835 50.6324 42.5611C50.6309 41.8931 50.5303 41.2291 50.3338 40.5906Z"
            fill="#CEB27C" />
        <path
            d="M64.8095 45.8453C64.8069 45.8834 64.8069 45.9217 64.8095 45.9598C64.8095 46.2434 64.7597 46.532 64.7199 46.8157C64.6807 47.0947 64.6002 47.3664 64.481 47.6218C64.4886 47.6427 64.4886 47.6656 64.481 47.6865C64.4648 47.7089 64.4499 47.7321 64.4362 47.7561C64.4288 47.7649 64.4197 47.7721 64.4095 47.7772C64.3992 47.7824 64.388 47.7853 64.3765 47.786C63.3813 47.7014 62.3562 47.6517 61.356 47.6517C60.5349 47.6517 59.7139 47.6517 58.9028 47.7014H58.4698C58.3206 47.7014 58.1862 47.7014 58.0717 47.7014C58.0369 47.7014 58.027 47.7014 58.027 47.6417C58.027 47.582 58.027 47.587 58.0717 47.587C58.2215 47.5757 58.364 47.5183 58.4798 47.4228C58.6031 47.3226 58.7075 47.2013 58.7883 47.0645C58.9513 46.7897 59.042 46.4781 59.052 46.1588V38.0029C59.0592 37.8533 59.0325 37.704 58.9739 37.5661C58.9153 37.4283 58.8263 37.3054 58.7137 37.2067C58.4904 37.011 58.2045 36.9015 57.9075 36.8982V36.7788C58.5096 36.8136 59.1267 36.8285 59.7636 36.8285C60.0622 36.8285 60.3558 36.8285 60.6494 36.7937C60.943 36.7589 61.2316 36.7589 61.5202 36.734C61.5501 36.734 61.565 36.734 61.57 36.7887C61.575 36.8434 61.57 36.8434 61.5352 36.8534C61.2466 36.9045 60.9769 37.0316 60.7539 37.2216C60.6403 37.3135 60.5497 37.4306 60.4892 37.5637C60.4287 37.6967 60.4001 37.8419 60.4056 37.9879V45.4671C60.4011 45.7238 60.452 45.9784 60.5549 46.2135C60.648 46.4217 60.7836 46.6082 60.9529 46.7609C61.1276 46.9133 61.3305 47.03 61.5501 47.1043C61.7888 47.1853 62.0394 47.2257 62.2915 47.2237C62.799 47.2279 63.2956 47.0768 63.7147 46.7908C64.1426 46.5113 64.4866 46.1209 64.7099 45.6612L64.8294 45.706C64.8244 45.7707 64.8144 45.8105 64.8095 45.8453Z"
            fill="#CEB27C" />
        <path
            d="M81.4547 44.671C81.1818 45.3601 80.7485 45.9742 80.1908 46.4624C79.6098 46.9537 78.9315 47.3167 78.2003 47.5273C77.3628 47.769 76.4943 47.8864 75.6226 47.8756C75.2909 47.8756 74.9426 47.8657 74.5776 47.8457C74.2243 47.8457 73.876 47.801 73.5277 47.7711L72.3135 47.6865C71.906 47.6567 71.4969 47.6567 71.0894 47.6865C71.0595 47.6865 71.0396 47.6865 71.0346 47.6317C71.0314 47.6173 71.0337 47.6021 71.0411 47.5893C71.0484 47.5764 71.0603 47.5667 71.0744 47.5621C71.2595 47.5286 71.4377 47.4647 71.6019 47.373C71.7245 47.3021 71.8285 47.2032 71.9055 47.0844C71.9789 46.9578 72.0247 46.817 72.0398 46.6714C72.0613 46.4847 72.0713 46.2969 72.0697 46.109V37.7641C72.0762 37.6267 72.0541 37.4894 72.005 37.361C71.9685 37.2704 71.9062 37.1925 71.8258 37.1371C71.75 37.0872 71.6657 37.0518 71.577 37.0325L71.3133 36.9728L71.0545 36.9131C71.0171 36.9056 70.982 36.8895 70.9518 36.8662C70.9216 36.8429 70.8972 36.813 70.8804 36.7788C70.8505 36.734 70.8804 36.7091 70.9251 36.7091H71.4675H71.995C72.214 36.7091 72.4329 36.7439 72.6419 36.7489C72.8509 36.7539 73.0649 36.7489 73.2739 36.7489C73.4829 36.7489 73.8262 36.7489 74.095 36.724C74.3637 36.6991 74.6274 36.6942 74.8961 36.6693L75.7023 36.6394H76.5034C77.1477 36.6455 77.7854 36.7703 78.3844 37.0077C79.0144 37.2443 79.6024 37.5803 80.1261 38.0029C80.6371 38.4212 81.07 38.9266 81.4049 39.4957C81.7327 40.0556 81.9045 40.6931 81.9025 41.3419V41.521C81.8976 41.5807 81.8976 41.6406 81.9025 41.7002C81.9075 41.7598 81.9075 41.8197 81.9025 41.8793V42.0435C81.929 42.9404 81.7768 43.8335 81.4547 44.671ZM80.1609 40.4114C79.9033 39.7714 79.5133 39.1931 79.0164 38.7145C78.5106 38.2409 77.9126 37.8767 77.2598 37.6446C76.5412 37.3892 75.7831 37.2629 75.0205 37.2714C74.7474 37.2709 74.4746 37.2909 74.2044 37.3311C73.9306 37.3722 73.6608 37.4371 73.3983 37.5252V45.5418C73.3873 45.8575 73.4328 46.1726 73.5327 46.4723C73.6089 46.6871 73.7496 46.8731 73.9357 47.0048C74.1385 47.1382 74.3708 47.2202 74.6125 47.2436C74.9262 47.2817 75.242 47.3 75.5579 47.2984C76.2474 47.305 76.9338 47.206 77.5932 47.0048C78.1762 46.8319 78.7156 46.5367 79.1756 46.1389C79.6264 45.7405 79.979 45.2432 80.2057 44.6859C80.4608 44.0401 80.5844 43.3498 80.5689 42.6556C80.5818 41.888 80.4432 41.1253 80.1609 40.4114Z"
            fill="#CEB27C" />
        <path
            d="M90.994 47.7412H90.3122H89.1727H88.0332C88.0208 47.7413 88.0088 47.7367 87.9996 47.7285C87.9904 47.7202 87.9846 47.7088 87.9834 47.6965C87.9813 47.682 87.9834 47.6672 87.9896 47.6539C87.9958 47.6406 88.0058 47.6295 88.0182 47.6218C88.3239 47.5228 88.5877 47.3247 88.768 47.0588C88.9483 46.7929 89.0347 46.4744 89.0135 46.1539V37.8387C89.027 37.7056 89.004 37.5715 88.947 37.4505C88.8901 37.3295 88.8012 37.2263 88.69 37.152C88.4614 37.0167 88.2073 36.9303 87.9436 36.8982C87.93 36.8958 87.9178 36.8882 87.9095 36.8772C87.9011 36.8661 87.8973 36.8523 87.8988 36.8385C87.8988 36.7987 87.8988 36.7788 87.9436 36.7788C88.5305 36.8392 89.1201 36.869 89.7101 36.8683C89.9888 36.8683 90.2625 36.8683 90.5362 36.8683C90.8099 36.8683 91.0786 36.8236 91.3473 36.7837C91.3772 36.7837 91.3971 36.7837 91.407 36.8335C91.417 36.8833 91.407 36.8932 91.3772 36.9032C91.2393 36.9303 91.103 36.9652 90.9691 37.0077C90.8536 37.0435 90.7445 37.0972 90.6457 37.1669C90.557 37.2326 90.4867 37.32 90.4416 37.4207C90.3863 37.5546 90.3608 37.6989 90.367 37.8437V46.1439C90.3338 46.5342 90.4395 46.9237 90.6656 47.2436C90.9418 47.5074 91.3087 47.6552 91.6906 47.6567V47.7761L90.994 47.7412Z"
            fill="#CEB27C" />
        <path
            d="M109.441 36.9131H109.381L109.092 37.0027C108.992 37.0307 108.896 37.0691 108.804 37.1171C108.718 37.157 108.643 37.2168 108.585 37.2913C108.531 37.3687 108.503 37.461 108.505 37.5551V38.7742C108.505 39.1823 108.505 39.5903 108.505 39.9934C108.505 40.3964 108.505 40.8045 108.505 41.2125V42.4317C108.505 43.3374 108.505 44.238 108.465 45.1338C108.426 46.0295 108.391 46.9351 108.311 47.8458C108.31 47.8575 108.305 47.8687 108.298 47.8783C108.291 47.8879 108.282 47.8955 108.271 47.9005C108.267 47.9049 108.262 47.9083 108.256 47.9107C108.251 47.9131 108.245 47.9143 108.239 47.9143C108.233 47.9143 108.227 47.9131 108.221 47.9107C108.216 47.9083 108.211 47.9049 108.207 47.9005C106.855 46.7384 105.574 45.4972 104.37 44.1833C103.156 42.8563 101.965 41.5293 100.797 40.2024L100.27 39.5853C100.115 39.4012 99.9412 39.2022 99.7421 38.9832C99.7421 39.1723 99.7073 39.3564 99.6924 39.5356C99.6738 39.7174 99.6655 39.9002 99.6675 40.0829C99.6675 40.5905 99.6774 41.0981 99.6973 41.6056C99.6973 42.1033 99.7371 42.6357 99.757 43.1632C99.777 43.6907 99.7969 44.1883 99.8168 44.6909C99.8367 45.1935 99.8466 45.6861 99.8466 46.2285C99.841 46.4304 99.8577 46.6324 99.8964 46.8306C99.9195 46.9488 99.9707 47.0598 100.046 47.1541C100.105 47.2258 100.182 47.2807 100.27 47.3133C100.359 47.3447 100.45 47.3696 100.543 47.3879C100.659 47.4085 100.774 47.4351 100.887 47.4676C101.021 47.5121 101.148 47.5794 101.26 47.6666C101.266 47.6773 101.268 47.6893 101.268 47.7014C101.268 47.7136 101.266 47.7255 101.26 47.7363C101.26 47.7612 101.26 47.7711 101.21 47.7711L100.792 47.7413L100.374 47.7014C100.2 47.7014 100.016 47.6616 99.8367 47.6467C99.6575 47.6318 99.4635 47.6467 99.2744 47.6467C99.0216 47.647 98.769 47.662 98.518 47.6915L97.7417 47.796C97.7417 47.796 97.7069 47.796 97.6919 47.7661C97.6825 47.756 97.6772 47.7427 97.6772 47.7288C97.6772 47.715 97.6825 47.7016 97.6919 47.6915C97.7764 47.6238 97.8645 47.5607 97.9557 47.5024L98.1945 47.3531L98.4483 47.2088C98.53 47.1648 98.6013 47.1037 98.6573 47.0297C98.7222 46.9472 98.7696 46.8524 98.7967 46.751C98.8358 46.6084 98.8542 46.4609 98.8514 46.3131V45.8951C98.8514 45.706 98.8514 45.4821 98.8514 45.2233C98.8514 44.6809 98.8514 44.0191 98.8514 43.2329C98.8514 42.4466 98.8514 41.6703 98.8514 40.8692C98.8514 40.3218 98.8514 39.7943 98.8514 39.2918C98.8514 38.7892 98.8514 38.3313 98.8812 37.9382C98.9111 37.5451 98.9161 37.2167 98.941 36.943C98.9658 36.6693 99.0007 36.5449 99.0554 36.5051C99.1101 36.4653 99.1201 36.5051 99.14 36.5051C100.606 38.0112 102.034 39.5041 103.424 40.9836C104.814 42.4632 106.208 43.9975 107.604 45.5866V45.4672C107.604 44.2397 107.59 43.0056 107.56 41.7649C107.53 40.5358 107.52 39.2768 107.52 38.0626C107.525 37.8622 107.498 37.6623 107.44 37.4705C107.402 37.3477 107.334 37.2364 107.241 37.147C107.164 37.0763 107.07 37.0266 106.967 37.0027L106.669 36.943L106.4 36.8932C106.313 36.8775 106.23 36.8398 106.161 36.7838C106.153 36.7739 106.149 36.7616 106.149 36.7489C106.149 36.7362 106.153 36.7239 106.161 36.7141C106.168 36.7031 106.177 36.6947 106.189 36.6901C106.201 36.6856 106.214 36.6853 106.226 36.6892L107.092 36.7887C107.378 36.8161 107.666 36.8161 107.953 36.7887L108.475 36.7489L108.789 36.7091C108.891 36.6917 108.995 36.6917 109.097 36.7091H109.291H109.471V36.8286C109.471 36.8593 109.46 36.8892 109.441 36.9131Z"
            fill="#CEB27C" />
        <path
            d="M126.061 42.7103C125.958 42.7709 125.874 42.8599 125.821 42.9667C125.767 43.0735 125.745 43.1935 125.757 43.3124V47.0744C125.757 47.0744 125.757 47.0744 125.728 47.1192C125.488 47.299 125.225 47.4446 124.946 47.5521C124.663 47.6606 124.369 47.7422 124.071 47.796C123.77 47.8504 123.465 47.8853 123.16 47.9005C122.856 47.9005 122.563 47.9005 122.274 47.9005C121.841 47.9005 121.398 47.9005 120.95 47.8557C120.231 47.813 119.528 47.621 118.886 47.2921C118.244 46.9631 117.678 46.5044 117.223 45.9448C116.787 45.3939 116.45 44.7707 116.228 44.1037C115.988 43.4023 115.866 42.6655 115.87 41.9241C115.861 41.1157 116.03 40.3152 116.367 39.5803C116.67 38.9214 117.113 38.3371 117.666 37.8685C118.234 37.3991 118.888 37.0457 119.592 36.8285C120.354 36.5914 121.148 36.4739 121.946 36.4802C122.389 36.4802 122.836 36.4802 123.289 36.5498C123.742 36.6195 124.185 36.6544 124.623 36.719L125.21 36.8036C125.404 36.8335 125.598 36.8584 125.797 36.8783C125.805 36.8775 125.813 36.8785 125.821 36.8812C125.829 36.884 125.835 36.8884 125.841 36.8941C125.847 36.8998 125.851 36.9067 125.854 36.9143C125.857 36.9219 125.858 36.93 125.857 36.938C125.857 37.2963 125.802 37.6446 125.752 37.9879L125.603 39.023L125.573 39.2221L125.543 39.4111C125.543 39.441 125.543 39.4559 125.494 39.4609C125.487 39.4631 125.479 39.4639 125.471 39.4631C125.464 39.4623 125.457 39.4599 125.45 39.4562C125.444 39.4525 125.438 39.4474 125.433 39.4414C125.429 39.4353 125.426 39.4284 125.424 39.4211C125.357 39.0286 125.209 38.6543 124.991 38.3214C124.789 38.0175 124.529 37.7569 124.225 37.555C123.92 37.3529 123.584 37.2033 123.23 37.1122C122.823 37.0242 122.406 36.989 121.99 37.0077C121.338 37.0015 120.689 37.118 120.08 37.351C119.508 37.5671 118.983 37.8934 118.537 38.3114C118.094 38.7331 117.741 39.2412 117.502 39.8043C117.244 40.4078 117.115 41.0587 117.124 41.7151C117.12 42.4474 117.262 43.1731 117.542 43.8499C117.809 44.5012 118.196 45.0969 118.681 45.6065C119.168 46.1099 119.747 46.5138 120.388 46.7957C121.062 47.0884 121.789 47.2376 122.523 47.2337C122.858 47.2322 123.192 47.1938 123.518 47.1192C123.851 47.0454 124.153 46.8718 124.384 46.6216V43.2776C124.399 43.1819 124.386 43.0838 124.346 42.9954C124.307 42.907 124.242 42.8321 124.16 42.78C124.002 42.6918 123.835 42.6201 123.662 42.566L123.429 42.4914C123.345 42.4607 123.265 42.4206 123.19 42.372C123.16 42.372 123.15 42.3322 123.16 42.3073C123.164 42.2951 123.172 42.2846 123.183 42.2774C123.194 42.2702 123.207 42.2667 123.22 42.2675C123.813 42.2675 124.401 42.2675 124.981 42.2675C125.558 42.2675 126.151 42.2973 126.743 42.3272V42.4466C126.503 42.4973 126.273 42.5863 126.061 42.7103Z"
            fill="#CEB27C" />
    </g>
</svg>